<svg viewBox="0 0 40 40" fill="none" xmlns="http://www.w3.org/2000/svg">
<mask id="mask0_56_9180" style="mask-type:alpha" maskUnits="userSpaceOnUse" x="0" y="0" width="40" height="41">
<rect y="0.40683" width="40" height="40" fill="#D9D9D9"/>
</mask>
<g mask="url(#mask0_56_9180)">
<path d="M15.4998 28.4902L28.0832 20.4068L15.4998 12.3235V28.4902ZM19.9998 38.4902C17.4721 38.4902 15.1109 38.0179 12.9165 37.0735C10.7221 36.129 8.81206 34.8446 7.1865 33.2202C5.56206 31.5946 4.27762 29.6846 3.33317 27.4902C2.38873 25.2957 1.9165 22.9346 1.9165 20.4068C1.9165 17.879 2.38873 15.5179 3.33317 13.3235C4.27762 11.129 5.56206 9.21904 7.1865 7.59349C8.81206 5.96904 10.7221 4.6846 12.9165 3.74015C15.1109 2.79571 17.4721 2.32349 19.9998 2.32349C22.5276 2.32349 24.8887 2.79571 27.0832 3.74015C29.2776 4.6846 31.1876 5.96904 32.8132 7.59349C34.4376 9.21904 35.7221 11.129 36.6665 13.3235C37.6109 15.5179 38.0832 17.879 38.0832 20.4068C38.0832 22.9346 37.6109 25.2957 36.6665 27.4902C35.7221 29.6846 34.4376 31.5946 32.8132 33.2202C31.1876 34.8446 29.2776 36.129 27.0832 37.0735C24.8887 38.0179 22.5276 38.4902 19.9998 38.4902Z" fill="#ABB6BC"/>
</g>
</svg>
