<svg viewBox="0 0 16 16" fill="none" xmlns="http://www.w3.org/2000/svg">
<mask id="mask0_56_15007" style="mask-type:alpha" maskUnits="userSpaceOnUse" x="0" y="0" width="16" height="16">
<rect width="16" height="16" fill="#D9D9D9"/>
</mask>
<g mask="url(#mask0_56_15007)">
<path d="M7.6 14.2C7.15556 14.2 6.77778 14.0444 6.46667 13.7333C6.15556 13.4222 6 13.05 6 12.6167C6 12.1722 6.15556 11.7944 6.46667 11.4833C6.77778 11.1722 7.15 11.0167 7.58333 11.0167C8.02778 11.0167 8.40289 11.1722 8.70867 11.4833C9.014 11.7944 9.16667 12.1722 9.16667 12.6167C9.16667 13.05 9.014 13.4222 8.70867 13.7333C8.40289 14.0444 8.03333 14.2 7.6 14.2ZM7.6 9.68333C7.15556 9.68333 6.77778 9.52778 6.46667 9.21667C6.15556 8.90556 6 8.53333 6 8.1C6 7.65556 6.15556 7.28044 6.46667 6.97467C6.77778 6.66933 7.15 6.51667 7.58333 6.51667C8.02778 6.51667 8.40289 6.66933 8.70867 6.97467C9.014 7.28044 9.16667 7.65 9.16667 8.08333C9.16667 8.52778 9.014 8.90556 8.70867 9.21667C8.40289 9.52778 8.03333 9.68333 7.6 9.68333ZM7.6 5.18333C7.15556 5.18333 6.77778 5.02489 6.46667 4.708C6.15556 4.39156 6 4.01667 6 3.58333C6 3.13889 6.15556 2.76378 6.46667 2.458C6.77778 2.15267 7.15 2 7.58333 2C8.02778 2 8.40289 2.15267 8.70867 2.458C9.014 2.76378 9.16667 3.13889 9.16667 3.58333C9.16667 4.01667 9.014 4.39156 8.70867 4.708C8.40289 5.02489 8.03333 5.18333 7.6 5.18333Z" fill="#2e4858"/>
</g>
</svg>