<svg viewBox="0 0 40 40" fill="none" xmlns="http://www.w3.org/2000/svg">
<mask id="mask0_56_9165" style="mask-type:alpha" maskUnits="userSpaceOnUse" x="0" y="0" width="40" height="41">
<rect y="0.40683" width="40" height="40" fill="#D9D9D9"/>
</mask>
<g mask="url(#mask0_56_9165)">
<path d="M12.5832 36.8652V32.9068H7.1665C5.69428 32.9068 4.45095 32.3996 3.4365 31.3852C2.42317 30.3718 1.9165 29.1291 1.9165 27.6568V9.24017C1.9165 7.76795 2.42317 6.52462 3.4365 5.51017C4.45095 4.49684 5.69428 3.99017 7.1665 3.99017H32.8332C34.3054 3.99017 35.5487 4.49684 36.5632 5.51017C37.5765 6.52462 38.0832 7.76795 38.0832 9.24017V27.6568C38.0832 29.1291 37.5765 30.3718 36.5632 31.3852C35.5487 32.3996 34.3054 32.9068 32.8332 32.9068H27.4165V36.8652H12.5832ZM7.1665 27.6568H32.8332V9.24017H7.1665V27.6568Z" fill="#ABB6BC"/>
</g>
</svg>
