<svg viewBox="0 0 16 16" fill="none" xmlns="http://www.w3.org/2000/svg">
<mask id="mask0_56_14690" style="mask-type:alpha" maskUnits="userSpaceOnUse" x="0" y="0" width="16" height="16">
<rect width="16" height="16" fill="#D9D9D9"/>
</mask>
<g mask="url(#mask0_56_14690)">
<path d="M13.0334 14.6334L8.71673 10.3167C8.39451 10.5389 8.01962 10.7167 7.59207 10.85C7.16407 10.9834 6.70007 11.05 6.20007 11.05C4.88895 11.05 3.77518 10.5916 2.85873 9.6747C1.94184 8.75825 1.4834 7.64448 1.4834 6.33337C1.4834 5.02225 1.94184 3.90825 2.85873 2.99137C3.77518 2.07492 4.88895 1.6167 6.20007 1.6167C7.51118 1.6167 8.62495 2.07492 9.5414 2.99137C10.4583 3.90825 10.9167 5.02225 10.9167 6.33337C10.9167 6.84448 10.8501 7.30825 10.7167 7.7247C10.5834 8.14159 10.4056 8.50559 10.1834 8.8167L14.5167 13.1667L13.0334 14.6334ZM6.20007 8.95003C6.9334 8.95003 7.55295 8.69714 8.05873 8.19137C8.56407 7.68603 8.81673 7.0667 8.81673 6.33337C8.81673 5.60003 8.56407 4.98048 8.05873 4.4747C7.55295 3.96937 6.9334 3.7167 6.20007 3.7167C5.46673 3.7167 4.8474 3.96937 4.34207 4.4747C3.83629 4.98048 3.5834 5.60003 3.5834 6.33337C3.5834 7.0667 3.83629 7.68603 4.34207 8.19137C4.8474 8.69714 5.46673 8.95003 6.20007 8.95003Z" fill="#2E4858"/>
</g>
</svg>
